<svg xmlns="http://www.w3.org/2000/svg" viewBox="0 0 640 480">
  <rect width="640" height="480" rx="0" fill="#0f172a" />
  <circle cx="160" cy="220" r="72" fill="#111827" />
  <circle cx="160" cy="220" r="48" fill="#22c55e" />
  <circle cx="320" cy="170" r="56" fill="#111827" />
  <circle cx="320" cy="170" r="36" fill="#0ea5e9" />
  <circle cx="480" cy="230" r="72" fill="#111827" />
  <circle cx="480" cy="230" r="48" fill="#22c55e" />
  <rect x="110" y="292" width="100" height="100" rx="24" fill="#111827" />
  <rect x="280" y="230" width="120" height="150" rx="28" fill="#111827" />
  <rect x="430" y="292" width="100" height="100" rx="24" fill="#111827" />
  <path d="M120 370 C140 340 190 340 210 370" stroke="#0ea5e9" stroke-width="16" fill="none" stroke-linecap="round" />
  <path d="M300 340 C330 320 370 320 400 340" stroke="#22c55e" stroke-width="16" fill="none" stroke-linecap="round" />
  <path d="M440 370 C460 340 510 340 530 370" stroke="#0ea5e9" stroke-width="16" fill="none" stroke-linecap="round" />
</svg>
